<svg version="1.1" preserveAspectRatio="none" xmlns="http://www.w3.org/2000/svg" width="500" height="500" viewBox="0 0 500 500"><rect width="100%" height="100%" fill="#F5F5F5" fill-opacity="1"/><svg viewBox="75.5044 66.0319 434.1888 499.2763" width="289.5888917619363" height="333" x="105.2056px" y="83.5px" xmlns="http://www.w3.org/2000/svg" xmlns:xlink="http://www.w3.org/1999/xlink" preserveAspectRatio="none"><defs></defs><style>.aLgOaV3zRcolors-3 {fill:#151F35;fill-opacity:1;}.aLgOaV3zRcolors-4 {fill:#BDBDC2;fill-opacity:1;}.aLgOaV3zRcolors-5 {fill:#0AC5A8;fill-opacity:1;}.aLgOaV3zRcolors-6 {fill:#51F3DA;fill-opacity:1;}.aLgOaV3zRcolors-7 {fill:#A7ACB0;fill-opacity:1;}.companyName {fill:#0AC5A8;fill-opacity:1;}.icon1 {fill:#2C3C5B;fill-opacity:1;}.icon2 {fill:#869CB8;fill-opacity:1;}.icon3 {fill:#5E738E;fill-opacity:1;}.icon3-str {stroke:#5E738E;stroke-opacity:1;}.text {fill:#0AC5A8;fill-opacity:1;}</style><g opacity="1" transform="rotate(0 102.9606 66.0319)">
<svg width="379.2764" height="379.2763" x="102.9606" y="66.0319" version="1.1" preserveAspectRatio="none" viewBox="0 0 100 100">
  <g transform="matrix(1 0 0 1 0 0)" class="icon1"><g><path d="m62.5 35.348c-5.5039-9.5195-15.746-15.43-26.734-15.43-10.984 0-21.227 5.9141-26.734 15.43-0.14844 0.25391-0.14844 0.57031 0 0.82422 5.5078 9.5195 15.75 15.43 26.734 15.43s21.227-5.9141 26.734-15.43c0.14844-0.25391 0.14844-0.57031 0-0.82422zm-40.91 0.41406c0-7.8164 6.3594-14.176 14.176-14.176s14.176 6.3594 14.176 14.176c0 7.8164-6.3594 14.176-14.176 14.176s-14.176-6.3594-14.176-14.176zm-10.887 0c3.5625-5.9297 9.082-10.328 15.453-12.555-3.7695 2.8945-6.2109 7.4453-6.2109 12.555s2.4375 9.6602 6.2109 12.555c-6.3672-2.2305-11.891-6.6289-15.453-12.555zm34.68 12.555c3.7695-2.8945 6.2109-7.4453 6.2109-12.555s-2.4375-9.6602-6.2109-12.555c6.3672 2.2305 11.891 6.6289 15.453 12.555-3.5625 5.9258-9.0859 10.324-15.453 12.555z"></path><path d="m35.77 27.168c-4.7383 0-8.5898 3.8555-8.5898 8.5898 0 4.7383 3.8555 8.5898 8.5898 8.5898 4.7383 0 8.5898-3.8555 8.5898-8.5898 0-4.7344-3.8555-8.5898-8.5898-8.5898zm0 15.539c-3.8281 0-6.9453-3.1172-6.9453-6.9453s3.1172-6.9453 6.9453-6.9453 6.9453 3.1172 6.9453 6.9453-3.1172 6.9453-6.9453 6.9453z"></path><path d="m57.004 14.523c-5.6719-5.6719-13.215-8.7969-21.234-8.7969s-15.562 3.125-21.234 8.7969c-11.707 11.707-11.707 30.762 0 42.469 5.6719 5.6719 13.215 8.7969 21.234 8.7969s15.562-3.125 21.234-8.7969c11.707-11.707 11.707-30.758 0-42.469zm-1.1641 41.309c-5.3594 5.3594-12.488 8.3125-20.07 8.3125s-14.711-2.9531-20.07-8.3125c-11.066-11.066-11.066-29.074 0-40.141 5.3633-5.3594 12.488-8.3125 20.07-8.3125s14.711 2.9531 20.07 8.3125c11.066 11.066 11.066 29.074 0 40.141z"></path><path d="m99.043 94.383-23.805-23.805c-1.0859-1.0859-2.7344-1.25-3.9961-0.50391l-9.6016-9.6016c13.371-13.996 13.18-36.254-0.57422-50.012-13.949-13.949-36.648-13.949-50.598 0-6.7539 6.7578-10.477 15.742-10.477 25.301 0 9.5547 3.7227 18.539 10.48 25.297 6.9766 6.9766 16.137 10.461 25.297 10.461 8.9062 0 17.812-3.2969 24.707-9.8867l9.6016 9.6016c-0.74609 1.2617-0.57812 2.9141 0.50391 3.9961l23.805 23.805c0.64453 0.64453 1.4883 0.96484 2.332 0.96484s1.6836-0.32031 2.3281-0.96484c1.2812-1.2852 1.2812-3.3672-0.003906-4.6523zm-87.41-34.488c-6.4453-6.4453-9.9961-15.02-9.9961-24.133 0-9.1172 3.5508-17.688 9.9961-24.133 6.6523-6.6523 15.395-9.9805 24.133-9.9805s17.48 3.3281 24.133 9.9805c13.309 13.309 13.309 34.961 0 48.27-13.305 13.305-34.957 13.305-48.266-0.003907z"></path></g></g>
</svg>
</g><g opacity="1" transform="rotate(0 75.5044 543.3082)">
<svg width="434.1888" height="22" x="75.5044" y="543.3082" version="1.1" preserveAspectRatio="none" viewBox="3.48 -29.46 716.7 36.32">
  <g transform="matrix(1 0 0 1 0 0)" class="text"><path id="id-6izo4zJp39" d="M3.48-28.66L21.14-28.66L21.14-25.50L7.38-25.50L7.38-15.98L18.52-15.98L18.52-12.94L7.38-12.94L7.38-3.16L21.14-3.16L21.14 0L3.48 0L3.48-28.66Z M45-20.26L33.70 5.98Q33.52 6.38 33.25 6.62Q32.98 6.86 32.42 6.86L32.42 6.86L29.78 6.86L33.48-1.18L25.12-20.26L28.20-20.26Q28.66-20.26 28.92-20.03Q29.18-19.80 29.30-19.52L29.30-19.52L34.72-6.76Q34.90-6.32 35.03-5.88Q35.16-5.44 35.26-4.98L35.26-4.98Q35.40-5.44 35.54-5.88Q35.68-6.32 35.86-6.78L35.86-6.78L41.12-19.52Q41.24-19.84 41.53-20.05Q41.82-20.26 42.16-20.26L42.16-20.26L45-20.26Z M57.34-20.58L57.34-20.58Q59.16-20.58 60.70-19.97Q62.24-19.36 63.36-18.21Q64.48-17.06 65.11-15.37Q65.74-13.68 65.74-11.52L65.74-11.52Q65.74-10.68 65.56-10.40Q65.38-10.12 64.88-10.12L64.88-10.12L51.40-10.12Q51.44-8.20 51.92-6.78Q52.40-5.36 53.24-4.41Q54.08-3.46 55.24-2.99Q56.40-2.52 57.84-2.52L57.84-2.52Q59.18-2.52 60.15-2.83Q61.12-3.14 61.82-3.50Q62.52-3.86 62.99-4.17Q63.46-4.48 63.80-4.48L63.80-4.48Q64.24-4.48 64.48-4.14L64.48-4.14L65.48-2.84Q64.82-2.04 63.90-1.45Q62.98-0.86 61.93-0.48Q60.88-0.10 59.76 0.09Q58.64 0.28 57.54 0.28L57.54 0.28Q55.44 0.28 53.67-0.43Q51.90-1.14 50.61-2.51Q49.32-3.88 48.60-5.90Q47.88-7.92 47.88-10.54L47.88-10.54Q47.88-12.66 48.53-14.50Q49.18-16.34 50.40-17.69Q51.62-19.04 53.38-19.81Q55.14-20.58 57.34-20.58ZM57.42-17.96L57.42-17.96Q54.84-17.96 53.36-16.47Q51.88-14.98 51.52-12.34L51.52-12.34L62.54-12.34Q62.54-13.58 62.20-14.61Q61.86-15.64 61.20-16.39Q60.54-17.14 59.59-17.55Q58.64-17.96 57.42-17.96Z M97.38-26.02L96.44-24.18Q96.26-23.88 96.06-23.73Q95.86-23.58 95.54-23.58L95.54-23.58Q95.20-23.58 94.75-23.92Q94.30-24.26 93.61-24.67Q92.92-25.08 91.95-25.42Q90.98-25.76 89.60-25.76L89.60-25.76Q88.30-25.76 87.30-25.41Q86.30-25.06 85.63-24.46Q84.96-23.86 84.62-23.05Q84.28-22.24 84.28-21.30L84.28-21.30Q84.28-20.10 84.87-19.31Q85.46-18.52 86.43-17.96Q87.40-17.40 88.63-16.99Q89.86-16.58 91.15-16.14Q92.44-15.70 93.67-15.15Q94.90-14.60 95.87-13.76Q96.84-12.92 97.43-11.70Q98.02-10.48 98.02-8.70L98.02-8.70Q98.02-6.82 97.38-5.17Q96.74-3.52 95.51-2.30Q94.28-1.08 92.49-0.38Q90.70 0.32 88.42 0.32L88.42 0.32Q85.64 0.32 83.35-0.69Q81.06-1.70 79.44-3.42L79.44-3.42L80.56-5.26Q80.72-5.48 80.95-5.63Q81.18-5.78 81.46-5.78L81.46-5.78Q81.88-5.78 82.42-5.33Q82.96-4.88 83.77-4.34Q84.58-3.80 85.73-3.35Q86.88-2.90 88.54-2.90L88.54-2.90Q89.92-2.90 91-3.28Q92.08-3.66 92.83-4.35Q93.58-5.04 93.98-6Q94.38-6.96 94.38-8.14L94.38-8.14Q94.38-9.44 93.79-10.27Q93.20-11.10 92.24-11.66Q91.28-12.22 90.05-12.61Q88.82-13 87.53-13.41Q86.24-13.82 85.01-14.36Q83.78-14.90 82.82-15.76Q81.86-16.62 81.27-17.91Q80.68-19.20 80.68-21.10L80.68-21.10Q80.68-22.62 81.27-24.04Q81.86-25.46 82.98-26.56Q84.10-27.66 85.75-28.32Q87.40-28.98 89.54-28.98L89.54-28.98Q91.94-28.98 93.92-28.22Q95.90-27.46 97.38-26.02L97.38-26.02Z M107.56 6.86L104 6.86L104-20.26L106.12-20.26Q106.88-20.26 107.08-19.52L107.08-19.52L107.38-17.12Q108.68-18.70 110.35-19.66Q112.02-20.62 114.20-20.62L114.20-20.62Q115.94-20.62 117.36-19.95Q118.78-19.28 119.78-17.97Q120.78-16.66 121.32-14.72Q121.86-12.78 121.86-10.26L121.86-10.26Q121.86-8.02 121.26-6.09Q120.66-4.16 119.54-2.75Q118.42-1.34 116.79-0.53Q115.16 0.28 113.12 0.28L113.12 0.28Q111.24 0.28 109.91-0.34Q108.58-0.96 107.56-2.10L107.56-2.10L107.56 6.86ZM113.02-17.74L113.02-17.74Q111.28-17.74 109.97-16.94Q108.66-16.14 107.56-14.68L107.56-14.68L107.56-4.88Q108.54-3.56 109.71-3.02Q110.88-2.48 112.32-2.48L112.32-2.48Q115.14-2.48 116.66-4.50Q118.18-6.52 118.18-10.26L118.18-10.26Q118.18-12.24 117.83-13.66Q117.48-15.08 116.82-15.99Q116.16-16.90 115.20-17.32Q114.24-17.74 113.02-17.74Z M144.40-20.26L133.10 5.98Q132.92 6.38 132.65 6.62Q132.38 6.86 131.82 6.86L131.82 6.86L129.18 6.86L132.88-1.18L124.52-20.26L127.60-20.26Q128.06-20.26 128.32-20.03Q128.58-19.80 128.70-19.52L128.70-19.52L134.12-6.76Q134.30-6.32 134.43-5.88Q134.56-5.44 134.66-4.98L134.66-4.98Q134.80-5.44 134.94-5.88Q135.08-6.32 135.26-6.78L135.26-6.78L140.52-19.52Q140.64-19.84 140.93-20.05Q141.22-20.26 141.56-20.26L141.56-20.26L144.40-20.26Z M148.88-2.20L148.88-2.20Q148.88-2.72 149.07-3.18Q149.26-3.64 149.59-3.98Q149.92-4.32 150.38-4.52Q150.84-4.72 151.36-4.72L151.36-4.72Q151.88-4.72 152.34-4.52Q152.80-4.32 153.14-3.98Q153.48-3.64 153.67-3.18Q153.86-2.72 153.86-2.20L153.86-2.20Q153.86-1.66 153.67-1.21Q153.48-0.76 153.14-0.42Q152.80-0.08 152.34 0.11Q151.88 0.30 151.36 0.30L151.36 0.30Q150.84 0.30 150.38 0.11Q149.92-0.08 149.59-0.42Q149.26-0.76 149.07-1.21Q148.88-1.66 148.88-2.20ZM148.88-17.20L148.88-17.20Q148.88-17.72 149.07-18.18Q149.26-18.64 149.59-18.98Q149.92-19.32 150.38-19.52Q150.84-19.72 151.36-19.72L151.36-19.72Q151.88-19.72 152.34-19.52Q152.80-19.32 153.14-18.98Q153.48-18.64 153.67-18.18Q153.86-17.72 153.86-17.20L153.86-17.20Q153.86-16.66 153.67-16.21Q153.48-15.76 153.14-15.42Q152.80-15.08 152.34-14.89Q151.88-14.70 151.36-14.70L151.36-14.70Q150.84-14.70 150.38-14.89Q149.92-15.08 149.59-15.42Q149.26-15.76 149.07-16.21Q148.88-16.66 148.88-17.20Z M167.88-28.66L190.32-28.66L190.32-25.40L181.06-25.40L181.06 0L177.18 0L177.18-25.40L167.88-25.40L167.88-28.66Z M199.26-20.58L199.26-20.58Q201.08-20.58 202.62-19.97Q204.16-19.36 205.28-18.21Q206.40-17.06 207.03-15.37Q207.66-13.68 207.66-11.52L207.66-11.52Q207.66-10.68 207.48-10.40Q207.30-10.12 206.80-10.12L206.80-10.12L193.32-10.12Q193.36-8.20 193.84-6.78Q194.32-5.36 195.16-4.41Q196-3.46 197.16-2.99Q198.32-2.52 199.76-2.52L199.76-2.52Q201.10-2.52 202.07-2.83Q203.04-3.14 203.74-3.50Q204.44-3.86 204.91-4.17Q205.38-4.48 205.72-4.48L205.72-4.48Q206.16-4.48 206.40-4.14L206.40-4.14L207.40-2.84Q206.74-2.04 205.82-1.45Q204.90-0.86 203.85-0.48Q202.80-0.10 201.68 0.09Q200.56 0.28 199.46 0.28L199.46 0.28Q197.36 0.28 195.59-0.43Q193.82-1.14 192.53-2.51Q191.24-3.88 190.52-5.90Q189.80-7.92 189.80-10.54L189.80-10.54Q189.80-12.66 190.45-14.50Q191.10-16.34 192.32-17.69Q193.54-19.04 195.30-19.81Q197.06-20.58 199.26-20.58ZM199.34-17.96L199.34-17.96Q196.76-17.96 195.28-16.47Q193.80-14.98 193.44-12.34L193.44-12.34L204.46-12.34Q204.46-13.58 204.12-14.61Q203.78-15.64 203.12-16.39Q202.46-17.14 201.51-17.55Q200.56-17.96 199.34-17.96Z M226.20-18.22L225.40-16.92Q225.16-16.48 224.66-16.48L224.66-16.48Q224.36-16.48 223.98-16.70Q223.60-16.92 223.05-17.19Q222.50-17.46 221.74-17.69Q220.98-17.92 219.94-17.92L219.94-17.92Q219.04-17.92 218.32-17.69Q217.60-17.46 217.09-17.06Q216.58-16.66 216.31-16.13Q216.04-15.60 216.04-14.98L216.04-14.98Q216.04-14.20 216.49-13.68Q216.94-13.16 217.68-12.78Q218.42-12.40 219.36-12.11Q220.30-11.82 221.29-11.49Q222.28-11.16 223.22-10.76Q224.16-10.36 224.90-9.76Q225.64-9.16 226.09-8.29Q226.54-7.42 226.54-6.20L226.54-6.20Q226.54-4.80 226.04-3.61Q225.54-2.42 224.56-1.55Q223.58-0.68 222.16-0.18Q220.74 0.32 218.88 0.32L218.88 0.32Q216.76 0.32 215.04-0.37Q213.32-1.06 212.12-2.14L212.12-2.14L212.96-3.50Q213.12-3.76 213.34-3.90Q213.56-4.04 213.92-4.04L213.92-4.04Q214.28-4.04 214.68-3.76Q215.08-3.48 215.65-3.14Q216.22-2.80 217.03-2.52Q217.84-2.24 219.06-2.24L219.06-2.24Q220.10-2.24 220.88-2.51Q221.66-2.78 222.18-3.24Q222.70-3.70 222.95-4.30Q223.20-4.90 223.20-5.58L223.20-5.58Q223.20-6.42 222.75-6.97Q222.30-7.52 221.56-7.91Q220.82-8.30 219.87-8.59Q218.92-8.88 217.93-9.20Q216.94-9.52 215.99-9.93Q215.04-10.34 214.30-10.96Q213.56-11.58 213.11-12.49Q212.66-13.40 212.66-14.70L212.66-14.70Q212.66-15.86 213.14-16.93Q213.62-18 214.54-18.81Q215.46-19.62 216.80-20.10Q218.14-20.58 219.86-20.58L219.86-20.58Q221.86-20.58 223.45-19.95Q225.04-19.32 226.20-18.22L226.20-18.22Z M238.90 0.32L238.90 0.32Q236.50 0.32 235.21-1.02Q233.92-2.36 233.92-4.88L233.92-4.88L233.92-17.28L231.48-17.28Q231.16-17.28 230.94-17.47Q230.72-17.66 230.72-18.06L230.72-18.06L230.72-19.48L234.04-19.90L234.86-26.16Q234.90-26.46 235.12-26.65Q235.34-26.84 235.68-26.84L235.68-26.84L237.48-26.84L237.48-19.86L243.28-19.86L243.28-17.28L237.48-17.28L237.48-5.12Q237.48-3.84 238.10-3.22Q238.72-2.60 239.70-2.60L239.70-2.60Q240.26-2.60 240.67-2.75Q241.08-2.90 241.38-3.08Q241.68-3.26 241.89-3.41Q242.10-3.56 242.26-3.56L242.26-3.56Q242.54-3.56 242.76-3.22L242.76-3.22L243.80-1.52Q242.88-0.66 241.58-0.17Q240.28 0.32 238.90 0.32Z M280.72-28.66L270.20-11.40L270.20 0L266.34 0L266.34-11.40L255.84-28.66L259.24-28.66Q259.76-28.66 260.06-28.40Q260.36-28.14 260.58-27.76L260.58-27.76L267.14-16.62Q267.54-15.92 267.81-15.30Q268.08-14.68 268.30-14.08L268.30-14.08Q268.52-14.70 268.78-15.32Q269.04-15.94 269.44-16.62L269.44-16.62L275.98-27.76Q276.16-28.08 276.47-28.37Q276.78-28.66 277.28-28.66L277.28-28.66L280.72-28.66Z M290.36-20.58L290.36-20.58Q292.58-20.58 294.37-19.84Q296.16-19.10 297.41-17.74Q298.66-16.38 299.33-14.45Q300-12.52 300-10.14L300-10.14Q300-7.74 299.33-5.82Q298.66-3.90 297.41-2.54Q296.16-1.18 294.37-0.45Q292.58 0.28 290.36 0.28L290.36 0.28Q288.14 0.28 286.35-0.45Q284.56-1.18 283.30-2.54Q282.04-3.90 281.36-5.82Q280.68-7.74 280.68-10.14L280.68-10.14Q280.68-12.52 281.36-14.45Q282.04-16.38 283.30-17.74Q284.56-19.10 286.35-19.84Q288.14-20.58 290.36-20.58ZM290.36-2.50L290.36-2.50Q293.36-2.50 294.84-4.51Q296.32-6.52 296.32-10.12L296.32-10.12Q296.32-13.74 294.84-15.76Q293.36-17.78 290.36-17.78L290.36-17.78Q288.84-17.78 287.72-17.26Q286.60-16.74 285.85-15.76Q285.10-14.78 284.73-13.35Q284.36-11.92 284.36-10.12L284.36-10.12Q284.36-8.32 284.73-6.90Q285.10-5.48 285.85-4.51Q286.60-3.54 287.72-3.02Q288.84-2.50 290.36-2.50Z M305.52-20.26L309.08-20.26L309.08-7.34Q309.08-5.04 310.14-3.78Q311.20-2.52 313.34-2.52L313.34-2.52Q314.90-2.52 316.28-3.26Q317.66-4 318.82-5.32L318.82-5.32L318.82-20.26L322.38-20.26L322.38 0L320.26 0Q319.50 0 319.30-0.74L319.30-0.74L319.02-2.92Q317.70-1.46 316.06-0.57Q314.42 0.32 312.30 0.32L312.30 0.32Q310.64 0.32 309.37-0.23Q308.10-0.78 307.24-1.78Q306.38-2.78 305.95-4.20Q305.52-5.62 305.52-7.34L305.52-7.34L305.52-20.26Z M333.40 0L329.84 0L329.84-20.26L331.88-20.26Q332.46-20.26 332.68-20.04Q332.90-19.82 332.98-19.28L332.98-19.28L333.22-16.12Q334.26-18.24 335.79-19.43Q337.32-20.62 339.38-20.62L339.38-20.62Q340.22-20.62 340.90-20.43Q341.58-20.24 342.16-19.90L342.16-19.90L341.70-17.24Q341.56-16.74 341.08-16.74L341.08-16.74Q340.80-16.74 340.22-16.93Q339.64-17.12 338.60-17.12L338.60-17.12Q336.74-17.12 335.49-16.04Q334.24-14.96 333.40-12.90L333.40-12.90L333.40 0Z M365.80 0L354.12-28.66L357.22-28.66Q357.74-28.66 358.06-28.40Q358.38-28.14 358.54-27.74L358.54-27.74L366.64-7.52Q366.92-6.84 367.15-6.04Q367.38-5.24 367.60-4.38L367.60-4.38Q367.78-5.24 367.99-6.04Q368.20-6.84 368.48-7.52L368.48-7.52L376.54-27.74Q376.68-28.08 377.02-28.37Q377.36-28.66 377.86-28.66L377.86-28.66L380.98-28.66L369.30 0L365.80 0Z M386.08-20.26L389.64-20.26L389.64 0L386.08 0L386.08-20.26ZM390.44-26.62L390.44-26.62Q390.44-26.10 390.23-25.65Q390.02-25.20 389.67-24.85Q389.32-24.50 388.86-24.30Q388.40-24.10 387.88-24.10L387.88-24.10Q387.36-24.10 386.91-24.30Q386.46-24.50 386.11-24.85Q385.76-25.20 385.56-25.65Q385.36-26.10 385.36-26.62L385.36-26.62Q385.36-27.14 385.56-27.61Q385.76-28.08 386.11-28.43Q386.46-28.78 386.91-28.98Q387.36-29.18 387.88-29.18L387.88-29.18Q388.40-29.18 388.86-28.98Q389.32-28.78 389.67-28.43Q390.02-28.08 390.23-27.61Q390.44-27.14 390.44-26.62Z M409.92-18.22L409.12-16.92Q408.88-16.48 408.38-16.48L408.38-16.48Q408.08-16.48 407.70-16.70Q407.32-16.92 406.77-17.19Q406.22-17.46 405.46-17.69Q404.70-17.92 403.66-17.92L403.66-17.92Q402.76-17.92 402.04-17.69Q401.32-17.46 400.81-17.06Q400.30-16.66 400.03-16.13Q399.76-15.60 399.76-14.98L399.76-14.98Q399.76-14.20 400.21-13.68Q400.66-13.16 401.40-12.78Q402.14-12.40 403.08-12.11Q404.02-11.82 405.01-11.49Q406.00-11.16 406.94-10.76Q407.88-10.36 408.62-9.76Q409.36-9.16 409.81-8.29Q410.26-7.42 410.26-6.20L410.26-6.20Q410.26-4.80 409.76-3.61Q409.26-2.42 408.28-1.55Q407.30-0.68 405.88-0.18Q404.46 0.32 402.60 0.32L402.60 0.32Q400.48 0.32 398.76-0.37Q397.04-1.06 395.84-2.14L395.84-2.14L396.68-3.50Q396.84-3.76 397.06-3.90Q397.28-4.04 397.64-4.04L397.64-4.04Q398.00-4.04 398.40-3.76Q398.80-3.48 399.37-3.14Q399.94-2.80 400.75-2.52Q401.56-2.24 402.78-2.24L402.78-2.24Q403.82-2.24 404.60-2.51Q405.38-2.78 405.90-3.24Q406.42-3.70 406.67-4.30Q406.92-4.90 406.92-5.58L406.92-5.58Q406.92-6.42 406.47-6.97Q406.02-7.52 405.28-7.91Q404.54-8.30 403.59-8.59Q402.64-8.88 401.65-9.20Q400.66-9.52 399.71-9.93Q398.76-10.34 398.02-10.96Q397.28-11.58 396.83-12.49Q396.38-13.40 396.38-14.70L396.38-14.70Q396.38-15.86 396.86-16.93Q397.34-18 398.26-18.81Q399.18-19.62 400.52-20.10Q401.86-20.58 403.58-20.58L403.58-20.58Q405.58-20.58 407.17-19.95Q408.76-19.32 409.92-18.22L409.92-18.22Z M416.88-20.26L420.44-20.26L420.44 0L416.88 0L416.88-20.26ZM421.24-26.62L421.24-26.62Q421.24-26.10 421.03-25.65Q420.82-25.20 420.47-24.85Q420.12-24.50 419.66-24.30Q419.20-24.10 418.68-24.10L418.68-24.10Q418.16-24.10 417.71-24.30Q417.26-24.50 416.91-24.85Q416.56-25.20 416.36-25.65Q416.16-26.10 416.16-26.62L416.16-26.62Q416.16-27.14 416.36-27.61Q416.56-28.08 416.91-28.43Q417.26-28.78 417.71-28.98Q418.16-29.18 418.68-29.18L418.68-29.18Q419.20-29.18 419.66-28.98Q420.12-28.78 420.47-28.43Q420.82-28.08 421.03-27.61Q421.24-27.14 421.24-26.62Z M436.52-20.58L436.52-20.58Q438.74-20.58 440.53-19.84Q442.32-19.10 443.57-17.74Q444.82-16.38 445.49-14.45Q446.16-12.52 446.16-10.14L446.16-10.14Q446.16-7.74 445.49-5.82Q444.82-3.90 443.57-2.54Q442.32-1.18 440.53-0.45Q438.74 0.28 436.52 0.28L436.52 0.28Q434.30 0.28 432.51-0.45Q430.72-1.18 429.46-2.54Q428.20-3.90 427.52-5.82Q426.84-7.74 426.84-10.14L426.84-10.14Q426.84-12.52 427.52-14.45Q428.20-16.38 429.46-17.74Q430.72-19.10 432.51-19.84Q434.30-20.58 436.52-20.58ZM436.52-2.50L436.52-2.50Q439.52-2.50 441.00-4.51Q442.48-6.52 442.48-10.12L442.48-10.12Q442.48-13.74 441.00-15.76Q439.52-17.78 436.52-17.78L436.52-17.78Q435.00-17.78 433.88-17.26Q432.76-16.74 432.01-15.76Q431.26-14.78 430.89-13.35Q430.52-11.92 430.52-10.12L430.52-10.12Q430.52-8.32 430.89-6.90Q431.26-5.48 432.01-4.51Q432.76-3.54 433.88-3.02Q435.00-2.50 436.52-2.50Z M455.72 0L452.16 0L452.16-20.26L454.28-20.26Q455.04-20.26 455.24-19.52L455.24-19.52L455.52-17.32Q456.84-18.78 458.47-19.68Q460.10-20.58 462.24-20.58L462.24-20.58Q463.90-20.58 465.17-20.03Q466.44-19.48 467.29-18.47Q468.14-17.46 468.58-16.04Q469.02-14.62 469.02-12.90L469.02-12.90L469.02 0L465.46 0L465.46-12.90Q465.46-15.20 464.41-16.47Q463.36-17.74 461.20-17.74L461.20-17.74Q459.62-17.74 458.25-16.98Q456.88-16.22 455.72-14.92L455.72-14.92L455.72 0Z M489.24 0L482.68-20.26L485.48-20.26Q485.92-20.26 486.20-20.04Q486.48-19.82 486.58-19.52L486.58-19.52L490.46-6.48Q490.62-5.76 490.76-5.09Q490.90-4.42 491.00-3.74L491.00-3.74Q491.16-4.42 491.36-5.09Q491.56-5.76 491.78-6.48L491.78-6.48L496.06-19.60Q496.16-19.90 496.41-20.10Q496.66-20.30 497.04-20.30L497.04-20.30L498.58-20.30Q498.98-20.30 499.24-20.10Q499.50-19.90 499.60-19.60L499.60-19.60L503.78-6.48Q504.00-5.78 504.17-5.10Q504.34-4.42 504.50-3.76L504.50-3.76Q504.60-4.42 504.76-5.14Q504.92-5.86 505.10-6.48L505.10-6.48L509.06-19.52Q509.16-19.84 509.44-20.05Q509.72-20.26 510.10-20.26L510.10-20.26L512.78-20.26L506.22 0L503.40 0Q502.88 0 502.68-0.68L502.68-0.68L498.20-14.42Q498.04-14.88 497.94-15.35Q497.84-15.82 497.74-16.28L497.74-16.28Q497.64-15.82 497.54-15.34Q497.44-14.86 497.28-14.40L497.28-14.40L492.74-0.68Q492.52 0 491.92 0L491.92 0L489.24 0Z M517.96-20.26L521.52-20.26L521.52 0L517.96 0L517.96-20.26ZM522.32-26.62L522.32-26.62Q522.32-26.10 522.11-25.65Q521.90-25.20 521.55-24.85Q521.20-24.50 520.74-24.30Q520.28-24.10 519.76-24.10L519.76-24.10Q519.24-24.10 518.79-24.30Q518.34-24.50 517.99-24.85Q517.64-25.20 517.44-25.65Q517.24-26.10 517.24-26.62L517.24-26.62Q517.24-27.14 517.44-27.61Q517.64-28.08 517.99-28.43Q518.34-28.78 518.79-28.98Q519.24-29.18 519.76-29.18L519.76-29.18Q520.28-29.18 520.74-28.98Q521.20-28.78 521.55-28.43Q521.90-28.08 522.11-27.61Q522.32-27.14 522.32-26.62Z M535.54 0.32L535.54 0.32Q533.14 0.32 531.85-1.02Q530.56-2.36 530.56-4.88L530.56-4.88L530.56-17.28L528.12-17.28Q527.80-17.28 527.58-17.47Q527.36-17.66 527.36-18.06L527.36-18.06L527.36-19.48L530.68-19.90L531.50-26.16Q531.54-26.46 531.76-26.65Q531.98-26.84 532.32-26.84L532.32-26.84L534.12-26.84L534.12-19.86L539.92-19.86L539.92-17.28L534.12-17.28L534.12-5.12Q534.12-3.84 534.74-3.22Q535.36-2.60 536.34-2.60L536.34-2.60Q536.90-2.60 537.31-2.75Q537.72-2.90 538.02-3.08Q538.32-3.26 538.53-3.41Q538.74-3.56 538.90-3.56L538.90-3.56Q539.18-3.56 539.40-3.22L539.40-3.22L540.44-1.52Q539.52-0.66 538.22-0.17Q536.92 0.32 535.54 0.32Z M549.48 0L545.92 0L545.92-29.46L549.48-29.46L549.48-17.54Q550.78-18.92 552.36-19.75Q553.94-20.58 556.00-20.58L556.00-20.58Q557.66-20.58 558.93-20.03Q560.20-19.48 561.05-18.47Q561.90-17.46 562.34-16.04Q562.78-14.62 562.78-12.90L562.78-12.90L562.78 0L559.22 0L559.22-12.90Q559.22-15.20 558.17-16.47Q557.12-17.74 554.96-17.74L554.96-17.74Q553.38-17.74 552.01-16.98Q550.64-16.22 549.48-14.92L549.48-14.92L549.48 0Z M593.96-12.96L593.96 0L592.38 0Q591.86 0 591.54-0.16Q591.22-0.32 591.12-0.84L591.12-0.84L590.72-2.72Q589.92-2 589.16-1.43Q588.40-0.86 587.56-0.47Q586.72-0.08 585.77 0.12Q584.82 0.32 583.66 0.32L583.66 0.32Q582.48 0.32 581.45-0.01Q580.42-0.34 579.66-1Q578.90-1.66 578.45-2.67Q578.00-3.68 578.00-5.06L578.00-5.06Q578.00-6.26 578.66-7.37Q579.32-8.48 580.79-9.34Q582.26-10.20 584.64-10.75Q587.02-11.30 590.46-11.38L590.46-11.38L590.46-12.96Q590.46-15.32 589.45-16.53Q588.44-17.74 586.46-17.74L586.46-17.74Q585.16-17.74 584.27-17.41Q583.38-17.08 582.73-16.67Q582.08-16.26 581.61-15.93Q581.14-15.60 580.68-15.60L580.68-15.60Q580.32-15.60 580.05-15.79Q579.78-15.98 579.62-16.26L579.62-16.26L578.98-17.40Q580.66-19.02 582.60-19.82Q584.54-20.62 586.90-20.62L586.90-20.62Q588.60-20.62 589.92-20.06Q591.24-19.50 592.14-18.50Q593.04-17.50 593.50-16.08Q593.96-14.66 593.96-12.96L593.96-12.96ZM584.72-2.18L584.72-2.18Q585.66-2.18 586.44-2.37Q587.22-2.56 587.91-2.91Q588.60-3.26 589.23-3.76Q589.86-4.26 590.46-4.90L590.46-4.90L590.46-9.12Q588.00-9.04 586.28-8.73Q584.56-8.42 583.48-7.92Q582.40-7.42 581.91-6.74Q581.42-6.06 581.42-5.22L581.42-5.22Q581.42-4.42 581.68-3.84Q581.94-3.26 582.38-2.89Q582.82-2.52 583.42-2.35Q584.02-2.18 584.72-2.18Z M626.46-26.02L625.52-24.18Q625.34-23.88 625.14-23.73Q624.94-23.58 624.62-23.58L624.62-23.58Q624.28-23.58 623.83-23.92Q623.38-24.26 622.69-24.67Q622.00-25.08 621.03-25.42Q620.06-25.76 618.68-25.76L618.68-25.76Q617.38-25.76 616.38-25.41Q615.38-25.06 614.71-24.46Q614.04-23.86 613.70-23.05Q613.36-22.24 613.36-21.30L613.36-21.30Q613.36-20.10 613.95-19.31Q614.54-18.52 615.51-17.96Q616.48-17.40 617.71-16.99Q618.94-16.58 620.23-16.14Q621.52-15.70 622.75-15.15Q623.98-14.60 624.95-13.76Q625.92-12.92 626.51-11.70Q627.10-10.48 627.10-8.70L627.10-8.70Q627.10-6.82 626.46-5.17Q625.82-3.52 624.59-2.30Q623.36-1.08 621.57-0.38Q619.78 0.32 617.50 0.32L617.50 0.32Q614.72 0.32 612.43-0.69Q610.14-1.70 608.52-3.42L608.52-3.42L609.64-5.26Q609.80-5.48 610.03-5.63Q610.26-5.78 610.54-5.78L610.54-5.78Q610.96-5.78 611.50-5.33Q612.04-4.88 612.85-4.34Q613.66-3.80 614.81-3.35Q615.96-2.90 617.62-2.90L617.62-2.90Q619.00-2.90 620.08-3.28Q621.16-3.66 621.91-4.35Q622.66-5.04 623.06-6Q623.46-6.96 623.46-8.14L623.46-8.14Q623.46-9.44 622.87-10.27Q622.28-11.10 621.32-11.66Q620.36-12.22 619.13-12.61Q617.90-13 616.61-13.41Q615.32-13.82 614.09-14.36Q612.86-14.90 611.90-15.76Q610.94-16.62 610.35-17.91Q609.76-19.20 609.76-21.10L609.76-21.10Q609.76-22.62 610.35-24.04Q610.94-25.46 612.06-26.56Q613.18-27.66 614.83-28.32Q616.48-28.98 618.62-28.98L618.62-28.98Q621.02-28.98 623.00-28.22Q624.98-27.46 626.46-26.02L626.46-26.02Z M636.64 0L633.08 0L633.08-20.26L635.20-20.26Q635.96-20.26 636.16-19.52L636.16-19.52L636.42-17.44Q637.54-18.82 638.93-19.70Q640.32-20.58 642.16-20.58L642.16-20.58Q644.22-20.58 645.49-19.44Q646.76-18.30 647.32-16.36L647.32-16.36Q647.74-17.46 648.43-18.26Q649.12-19.06 649.98-19.58Q650.84-20.10 651.81-20.34Q652.78-20.58 653.78-20.58L653.78-20.58Q655.38-20.58 656.63-20.07Q657.88-19.56 658.75-18.58Q659.62-17.60 660.08-16.17Q660.54-14.74 660.54-12.90L660.54-12.90L660.54 0L656.98 0L656.98-12.90Q656.98-15.28 655.94-16.51Q654.90-17.74 652.92-17.74L652.92-17.74Q652.04-17.74 651.25-17.43Q650.46-17.12 649.86-16.52Q649.26-15.92 648.91-15.01Q648.56-14.10 648.56-12.90L648.56-12.90L648.56 0L645.00 0L645.00-12.90Q645.00-15.34 644.02-16.54Q643.04-17.74 641.16-17.74L641.16-17.74Q639.84-17.74 638.71-17.03Q637.58-16.32 636.64-15.10L636.64-15.10L636.64 0Z M667.92-20.26L671.48-20.26L671.48 0L667.92 0L667.92-20.26ZM672.28-26.62L672.28-26.62Q672.28-26.10 672.07-25.65Q671.86-25.20 671.51-24.85Q671.16-24.50 670.70-24.30Q670.24-24.10 669.72-24.10L669.72-24.10Q669.20-24.10 668.75-24.30Q668.30-24.50 667.95-24.85Q667.60-25.20 667.40-25.65Q667.20-26.10 667.20-26.62L667.20-26.62Q667.20-27.14 667.40-27.61Q667.60-28.08 667.95-28.43Q668.30-28.78 668.75-28.98Q669.20-29.18 669.72-29.18L669.72-29.18Q670.24-29.18 670.70-28.98Q671.16-28.78 671.51-28.43Q671.86-28.08 672.07-27.61Q672.28-27.14 672.28-26.62Z M679.76-29.46L683.32-29.46L683.32 0L679.76 0L679.76-29.46Z M699.22-20.58L699.22-20.58Q701.04-20.58 702.58-19.97Q704.12-19.36 705.24-18.21Q706.36-17.06 706.99-15.37Q707.62-13.68 707.62-11.52L707.62-11.52Q707.62-10.68 707.44-10.40Q707.26-10.12 706.76-10.12L706.76-10.12L693.28-10.12Q693.32-8.20 693.80-6.78Q694.28-5.36 695.12-4.41Q695.96-3.46 697.12-2.99Q698.28-2.52 699.72-2.52L699.72-2.52Q701.06-2.52 702.03-2.83Q703.00-3.14 703.70-3.50Q704.40-3.86 704.87-4.17Q705.34-4.48 705.68-4.48L705.68-4.48Q706.12-4.48 706.36-4.14L706.36-4.14L707.36-2.84Q706.70-2.04 705.78-1.45Q704.86-0.86 703.81-0.48Q702.76-0.10 701.64 0.09Q700.52 0.28 699.42 0.28L699.42 0.28Q697.32 0.28 695.55-0.43Q693.78-1.14 692.49-2.51Q691.20-3.88 690.48-5.90Q689.76-7.92 689.76-10.54L689.76-10.54Q689.76-12.66 690.41-14.50Q691.06-16.34 692.28-17.69Q693.50-19.04 695.26-19.81Q697.02-20.58 699.22-20.58ZM699.30-17.96L699.30-17.96Q696.72-17.96 695.24-16.47Q693.76-14.98 693.40-12.34L693.40-12.34L704.42-12.34Q704.42-13.58 704.08-14.61Q703.74-15.64 703.08-16.39Q702.42-17.14 701.47-17.55Q700.52-17.96 699.30-17.96Z M716.06-28.66L719.44-28.66L719.44-17.22Q719.44-16.32 719.41-15.46Q719.38-14.60 719.32-13.73Q719.26-12.86 719.17-11.95Q719.08-11.04 718.96-10L718.96-10L716.54-10Q716.42-11.04 716.33-11.95Q716.24-12.86 716.18-13.73Q716.12-14.60 716.09-15.46Q716.06-16.32 716.06-17.22L716.06-17.22L716.06-28.66ZM715.20-2.20L715.20-2.20Q715.20-2.72 715.39-3.18Q715.58-3.64 715.91-3.98Q716.24-4.32 716.70-4.52Q717.16-4.72 717.68-4.72L717.68-4.72Q718.20-4.72 718.66-4.52Q719.12-4.32 719.46-3.98Q719.80-3.64 719.99-3.18Q720.18-2.72 720.18-2.20L720.18-2.20Q720.18-1.66 719.99-1.21Q719.80-0.76 719.46-0.42Q719.12-0.08 718.66 0.11Q718.20 0.30 717.68 0.30L717.68 0.30Q717.16 0.30 716.70 0.11Q716.24-0.08 715.91-0.42Q715.58-0.76 715.39-1.21Q715.20-1.66 715.20-2.20Z"/></g>
</svg>
</g><g opacity="1" transform="rotate(0 102.9606 485.3082)">
<svg width="379.2764" height="40" x="102.9606" y="485.3082" version="1.1" preserveAspectRatio="none" viewBox="2.6 -22.84 220.35999999999999 23.24">
  <g transform="matrix(1 0 0 1 0 0)" class="companyName"><path id="id-D6z1nYkh9" d="M14.16 0.40L14.16 0.40Q10.80 0.40 8.20-1.10Q5.60-2.60 4.10-5.22Q2.60-7.84 2.60-11.20L2.60-11.20Q2.60-14.56 4.10-17.20Q5.60-19.84 8.20-21.34Q10.80-22.84 14.16-22.84L14.16-22.84Q17.52-22.84 20.14-21.34Q22.76-19.84 24.26-17.20Q25.76-14.56 25.76-11.20L25.76-11.20Q25.76-7.84 24.26-5.22Q22.76-2.60 20.14-1.10Q17.52 0.40 14.16 0.40ZM14.80-1.60L14.80-1.60Q18.04-1.60 19.88-3.96Q21.72-6.32 21.72-10.20L21.72-10.20Q21.72-13.36 20.70-15.76Q19.68-18.16 17.84-19.50Q16-20.84 13.64-20.84L13.64-20.84Q10.44-20.84 8.54-18.50Q6.64-16.16 6.64-12.32L6.64-12.32Q6.64-9.12 7.68-6.72Q8.72-4.32 10.56-2.96Q12.40-1.60 14.80-1.60Z M41 0L30.76 0L30.76-0.64L33.68-1.96L33.68-20.44L30.76-21.76L30.76-22.40L40.40-22.40Q44.88-22.40 47.20-20.86Q49.52-19.32 49.52-16.08L49.52-16.08Q49.52-14.08 48.28-12.60Q47.04-11.12 44.86-10.34Q42.68-9.56 39.84-9.56L39.84-9.56L37.64-9.56L37.64-1.96L41-0.64L41 0ZM39.36-20.40L37.64-20.40L37.64-11.52L39.60-11.52Q42.28-11.52 43.84-12.70Q45.40-13.88 45.40-16L45.40-16Q45.40-18.36 43.82-19.38Q42.24-20.40 39.36-20.40L39.36-20.40Z M69.40 0L58.20 0L58.20-0.64L61.80-1.96L61.80-20.40L55.92-20.40L53.80-15.52L53.16-15.52L53.16-22.40L74.44-22.40L74.44-15.52L73.80-15.52L71.64-20.40L65.76-20.40L65.76-1.96L69.40-0.64L69.40 0Z M88.12 0L78.72 0L78.72-0.64L81.36-1.96L81.36-20.44L78.72-21.76L78.72-22.40L88.12-22.40L88.12-21.76L85.36-20.44L85.36-1.96L88.12-0.64L88.12 0Z M105.36 0.40L105.36 0.40Q101.88 0.40 99.14-1.04Q96.40-2.48 94.84-5Q93.28-7.52 93.28-10.68L93.28-10.68Q93.28-13.36 94.30-15.58Q95.32-17.80 97.08-19.42Q98.84-21.04 101.12-21.94Q103.40-22.84 105.92-22.84L105.92-22.84Q107.64-22.84 108.86-22.62Q110.08-22.40 111.06-22Q112.04-21.60 113-21.16L113-21.16L113.16-15.44L112.52-15.44L110.20-19.48Q109.20-20.24 108.18-20.54Q107.16-20.84 105.92-20.84L105.92-20.84Q103.40-20.84 101.46-19.60Q99.52-18.36 98.42-16.20Q97.32-14.04 97.32-11.32L97.32-11.32Q97.32-6.64 99.66-4.12Q102-1.60 105.96-1.60L105.96-1.60Q107.20-1.60 108.16-1.78Q109.12-1.96 110-2.44L110-2.44L112.88-6.72L113.52-6.72L113.16-1.32Q111.72-0.56 109.86-0.08Q108 0.40 105.36 0.40Z M129.16 0L119.40 0L119.40-0.64L122.28-1.96L122.28-20.44L119.40-21.76L119.40-22.40L129.16-22.40L129.16-21.76L126.24-20.44L126.24-12.60L137.52-12.60L137.52-20.44L134.60-21.76L134.60-22.40L144.28-22.40L144.28-21.76L141.48-20.44L141.48-1.96L144.28-0.64L144.28 0L134.60 0L134.60-0.64L137.52-1.96L137.52-10.60L126.24-10.60L126.24-1.96L129.16-0.64L129.16 0Z M167.68 0L149.08 0L149.08-0.64L151.96-1.96L151.96-20.44L149.08-21.76L149.08-22.40L166.68-22.40L166.68-16.64L166.04-16.64L163.96-20.40L155.92-20.40L155.92-12.60L161.76-12.60L163.12-15.36L163.76-15.36L163.76-7.88L163.12-7.88L161.76-10.60L155.92-10.60L155.92-2L164.84-2L167.04-6.52L167.68-6.52L167.68 0Z M185 0.40L185 0.40Q181.52 0.40 178.78-1.04Q176.04-2.48 174.48-5Q172.92-7.52 172.92-10.68L172.92-10.68Q172.92-13.36 173.94-15.58Q174.96-17.80 176.72-19.42Q178.48-21.04 180.76-21.94Q183.04-22.84 185.56-22.84L185.56-22.84Q187.28-22.84 188.50-22.62Q189.72-22.40 190.70-22Q191.68-21.60 192.64-21.16L192.64-21.16L192.80-15.44L192.16-15.44L189.84-19.48Q188.84-20.24 187.82-20.54Q186.80-20.84 185.56-20.84L185.56-20.84Q183.04-20.84 181.10-19.60Q179.16-18.36 178.06-16.20Q176.96-14.04 176.96-11.32L176.96-11.32Q176.96-6.64 179.30-4.12Q181.64-1.60 185.60-1.60L185.60-1.60Q186.84-1.60 187.80-1.78Q188.76-1.96 189.64-2.44L189.64-2.44L192.52-6.72L193.16-6.72L192.80-1.32Q191.36-0.56 189.50-0.08Q187.64 0.40 185 0.40Z M208.80 0L199.04 0L199.04-0.64L201.96-1.96L201.96-20.44L199.04-21.76L199.04-22.40L208.80-22.40L208.80-21.76L205.92-20.44L205.92-1.96L208.80-0.64L208.80 0ZM222.96 0L216.64 0L205.92-11.40L215.20-20.64L212.68-21.76L212.68-22.40L220.72-22.40L220.72-21.76L218.44-20.88L209.84-12.64L220.16-1.72L222.96-0.64L222.96 0Z"/></g>
</svg>
</g></svg></svg>